<svg id="Layer_1" data-name="Layer 1" xmlns="http://www.w3.org/2000/svg" viewBox="0 0 124.12 46.68"><rect x="5.48" y="3.22" width="40.72" height="40.72" rx="3.44" style="fill:#fff"/><path d="M42.76,4.22A2.44,2.44,0,0,1,45.2,6.66V40.5a2.44,2.44,0,0,1-2.44,2.44H8.92A2.44,2.44,0,0,1,6.48,40.5V6.66A2.44,2.44,0,0,1,8.92,4.22H42.76m0-2H8.92A4.44,4.44,0,0,0,4.48,6.66V40.5a4.44,4.44,0,0,0,4.44,4.44H42.76A4.44,4.44,0,0,0,47.2,40.5V6.66a4.44,4.44,0,0,0-4.44-4.44Z"/><path d="M24.79,15.55a3.17,3.17,0,0,1-.12.74c-.05.31-.07.62-.1.92-.06.7-.1,1.39-.13,2.08-.07,1.35-.1,2.69-.11,4,0,2.65.1,5.31.33,7.94.06.64.12,1.28.22,1.91s.07,1.23.69,1.36c1.2.24.71-2.09.67-2.66-.19-2.68-.34-5.37-.35-8.06,0-1.47,0-2.94.07-4.41l.09-2.32a3.48,3.48,0,0,0-.16-1.84c-.29-.46-1.15-.31-1.1.3Z"/><rect x="77.84" y="3.6" width="40.72" height="40.72" rx="3.44" style="fill:#fff"/><path d="M115.12,4.6A2.44,2.44,0,0,1,117.56,7V40.88a2.44,2.44,0,0,1-2.44,2.44H81.28a2.44,2.44,0,0,1-2.44-2.44V7A2.44,2.44,0,0,1,81.28,4.6h33.84m0-2H81.28A4.44,4.44,0,0,0,76.84,7V40.88a4.44,4.44,0,0,0,4.44,4.44h33.84a4.44,4.44,0,0,0,4.44-4.44V7a4.44,4.44,0,0,0-4.44-4.44Z"/><path d="M100.86,19a3,3,0,0,0-1.22-4,4.16,4.16,0,0,0-5,1,6.66,6.66,0,0,0-1.78,5,2.42,2.42,0,0,0,1.23,1.92,4.14,4.14,0,0,0,2.67.12,6.56,6.56,0,0,0,4.51-3.67L100,18.76a45.09,45.09,0,0,0-1.91,7,33.62,33.62,0,0,0-.4,3.46c0,.63,0,1.25,0,1.87A5.92,5.92,0,0,0,97.83,33c.22.56,1.25.76,1.36,0a1.79,1.79,0,0,0,0-.51.42.42,0,0,0-.41-.41,2,2,0,0,0-.49,0l.86.87a9.33,9.33,0,0,0,0-1.83c0-.54,0-1.09,0-1.63A29.41,29.41,0,0,1,99.6,26a43.62,43.62,0,0,1,1.76-6.83c.27-.77-1-1.32-1.33-.56a5.18,5.18,0,0,1-3.3,2.88c-.57.17-1.69.43-2.14-.09a2.15,2.15,0,0,1-.16-1.74c.36-1.59,1.28-3.29,3-3.7a2.06,2.06,0,0,1,2.08.56,1.7,1.7,0,0,1,.3,1.87c-.37.7.69,1.33,1.07.62Z"/><path d="M69.57,21.77c-2.73-.12-5.46-.14-8.19-.19l-4,0c-.83,0-2.84-.08-2.88,1.16s2,1.4,2.88,1.48c1.31.13,2.63.21,4,.23,2.73.06,5.46,0,8.19,0a1.34,1.34,0,0,0,0-2.67Z"/></svg>