<svg id="Layer_1" data-name="Layer 1" xmlns="http://www.w3.org/2000/svg" viewBox="0 0 85.64 46.38"><rect x="1.84" y="2.86" width="81.76" height="40.72" rx="3.44" style="fill:#fff"/><path d="M80.16,3.86A2.44,2.44,0,0,1,82.6,6.3V40.14a2.44,2.44,0,0,1-2.44,2.44H5.28a2.44,2.44,0,0,1-2.44-2.44V6.3A2.44,2.44,0,0,1,5.28,3.86H80.16m0-2H5.28A4.44,4.44,0,0,0,.84,6.3V40.14a4.44,4.44,0,0,0,4.44,4.44H80.16a4.44,4.44,0,0,0,4.44-4.44V6.3a4.44,4.44,0,0,0-4.44-4.44Z"/><path d="M16.1,25l0,.25.8-.62a4.9,4.9,0,0,0-2.35-.17c-.85,0-1.71.06-2.56.07s-1.64,0-2.46,0a15.14,15.14,0,0,0-2.52.1c-.62.11-.56,1,0,1.19a10.94,10.94,0,0,0,2.43.22c.85,0,1.7,0,2.55,0s1.64-.05,2.46-.09a5,5,0,0,0,2.45-.42.54.54,0,1,0-.66-.86c-.1.08-.2.14-.18.28Z"/><path d="M11.44,25.16A10.6,10.6,0,0,0,11.12,28c0,1-.06,2.05,0,3.08a38.9,38.9,0,0,0,.38,6.1.7.7,0,0,0,.49.48.62.62,0,0,0,.53-.07.66.66,0,0,0,.35-.59c0-2.05-.19-4.1-.2-6.16,0-1,0-2.05,0-3.07A6.61,6.61,0,0,0,12.51,25a.59.59,0,0,0-1.07.14Z"/><path d="M21.76,31.86a1.23,1.23,0,0,0,.17-.79,1.46,1.46,0,0,0-.66-.77,2.45,2.45,0,0,0-2.16.1,4.54,4.54,0,0,0-2.4,3.44,3.55,3.55,0,0,0,1.66,3.56c1.47.75,3-.56,3.82-1.71,1-1.44.55-3.49.28-5.09a.68.68,0,0,0-.77-.5.7.7,0,0,0-.6.69,8.1,8.1,0,0,0,.45,4c.42,1,2,3.58,3.33,2.25a.71.71,0,0,0,.19-.72c-.08-.25-.42-.71-.76-.53h.25a.61.61,0,0,0-.3,0,.33.33,0,0,0-.19.06c-.11,0-.12,0,0,0s.11,0,0-.15a4.22,4.22,0,0,1-1-1.42,6.59,6.59,0,0,1-.52-3.48L21.12,31c.09.55.16,1.1.21,1.66a5.38,5.38,0,0,1,0,1.5,2.19,2.19,0,0,1-.67,1.14,3.28,3.28,0,0,1-1.09.79c-.78.28-1.27-.84-1.35-1.46a3,3,0,0,1,.86-2.35,2.41,2.41,0,0,1,1.22-.73,2,2,0,0,1,1.17.26l-.2-.16,0,.11a.26.26,0,0,0,.48.13Z"/><path d="M28.51,26.14a7.8,7.8,0,0,0-.6,2.53c-.11.9-.19,1.79-.23,2.7a34.89,34.89,0,0,0,.08,5.41.8.8,0,0,0,1.6,0c.05-.86.11-1.73.22-2.58a3.46,3.46,0,0,1,.77-2c1-.95,3,.19,2.9,1.49a3.29,3.29,0,0,1-2.5,2.62,2.23,2.23,0,0,1-1.59-.48,3.53,3.53,0,0,1-.64-.64,2.44,2.44,0,0,1-.28-.43l-.08-.13c-.05-.24-.13-.15-.23.26a.65.65,0,0,0-.33-1.21c-.88,0-1.1,1-.79,1.64a4.84,4.84,0,0,0,1.57,1.85A3.69,3.69,0,0,0,33,36.85c1.28-1.05,2.37-2.94,1.45-4.54s-3-2.53-4.49-1.48a3.93,3.93,0,0,0-1.47,2.28c-.29,1.13-.42,2.32-.67,3.46l1.57.21c-.07-1.77-.15-3.53-.09-5.31,0-.86.08-1.73.14-2.6a10.85,10.85,0,0,0,0-2.61.51.51,0,0,0-.93-.12Z"/></svg>