<svg id="Layer_1" data-name="Layer 1" xmlns="http://www.w3.org/2000/svg" viewBox="0 0 85.64 46.38"><rect x="1.84" y="2.86" width="81.76" height="40.72" rx="3.44" style="fill:#fff"/><path d="M80.16,3.86A2.44,2.44,0,0,1,82.6,6.3V40.14a2.44,2.44,0,0,1-2.44,2.44H5.28a2.44,2.44,0,0,1-2.44-2.44V6.3A2.44,2.44,0,0,1,5.28,3.86H80.16m0-2H5.28A4.44,4.44,0,0,0,.84,6.3V40.14a4.44,4.44,0,0,0,4.44,4.44H80.16a4.44,4.44,0,0,0,4.44-4.44V6.3a4.44,4.44,0,0,0-4.44-4.44Z"/><path d="M7.77,24.1a14.28,14.28,0,0,0-.15,3.64c0,1.17,0,2.33,0,3.49s-.06,2.17-.06,3.25a4.86,4.86,0,0,0,.41,2.1c.28.58,1.13.26,1.15-.31s-.07-1.29,0-2c.07-1.11.08-2.23.1-3.34s0-2.32,0-3.48a11.36,11.36,0,0,0-.24-3.4.6.6,0,0,0-1.15,0Z"/><path d="M8.5,24.81a13.08,13.08,0,0,1,2.51.87A15.75,15.75,0,0,1,13.09,27a4.23,4.23,0,0,1,1.46,4.18,6.55,6.55,0,0,1-2.68,4,2.37,2.37,0,0,1-1.66.38,6.24,6.24,0,0,0-1.87-.13A.71.71,0,0,0,8,36.6a3.85,3.85,0,0,0,2.34.55,3.79,3.79,0,0,0,2.46-.72,8,8,0,0,0,3.28-5.08,5.73,5.73,0,0,0-1.93-5.42,14.29,14.29,0,0,0-2.79-1.73,3.53,3.53,0,0,0-3-.39c-.46.21-.27.86.13,1Z"/><path d="M19.16,31.93a1,1,0,0,0,.51,1,3.65,3.65,0,0,0,1.35.23,3.35,3.35,0,0,0,2.55-.88,3,3,0,0,0,.75-2.81,2.13,2.13,0,0,0-2.15-1.32,4.35,4.35,0,0,0-2.61,1.36,4.88,4.88,0,0,0-1.36,2.38,3.91,3.91,0,0,0,.41,2.9,4.27,4.27,0,0,0,2,1.68,6.57,6.57,0,0,0,3.34.41c1.11-.13,2.56-.25,2.93-1.51a.64.64,0,0,0-.79-.79,1.89,1.89,0,0,0-.51.26,1.76,1.76,0,0,1-.24.21,4.51,4.51,0,0,1-.92.19,6.84,6.84,0,0,1-2.21.08,2.92,2.92,0,0,1-2.51-2A3.21,3.21,0,0,1,21,30.14a2,2,0,0,1,1.45-.57c.57.11.55.59.4,1.07a1.49,1.49,0,0,1-1.29,1.05,8.69,8.69,0,0,1-1.14,0h-.39a2.25,2.25,0,0,0-.44,0l.31.12a.11.11,0,0,1-.07-.1c-.16-.36-.7-.15-.7.19Z"/><path d="M29.59,25.16a12.49,12.49,0,0,1-.12,2.73c-.07,1-.12,2-.12,2.95s0,2,.08,2.94a14.17,14.17,0,0,0,.32,2.91l1.39-.59a1.13,1.13,0,0,0-.43-.41.57.57,0,0,0-.67.08,1.08,1.08,0,0,0-.29.52c-.33,1,1.44,1.35,1.49.2a26.4,26.4,0,0,0-.2-2.94c-.06-1-.09-2-.09-3s0-2,.06-2.95a7.4,7.4,0,0,0-.2-2.73.63.63,0,0,0-1.22.34Z"/></svg>