<svg id="Layer_1" data-name="Layer 1" xmlns="http://www.w3.org/2000/svg" viewBox="0 0 99.44 64.2"><rect x="4.47" y="35" width="26.59" height="26.59" rx="3.69" style="fill:#fff"/><path d="M27.37,35.75a2.94,2.94,0,0,1,2.94,2.94V57.9a2.94,2.94,0,0,1-2.94,2.94H8.16A2.94,2.94,0,0,1,5.22,57.9V38.69a2.94,2.94,0,0,1,2.94-2.94H27.37m0-1.5H8.16a4.44,4.44,0,0,0-4.44,4.44V57.9a4.44,4.44,0,0,0,4.44,4.44H27.37a4.44,4.44,0,0,0,4.44-4.44V38.69a4.44,4.44,0,0,0-4.44-4.44Z"/><rect x="68.61" y="35" width="26.59" height="26.59" rx="3.69" style="fill:#fff"/><path d="M91.51,35.75a2.94,2.94,0,0,1,2.94,2.94V57.9a2.94,2.94,0,0,1-2.94,2.94H72.3a2.94,2.94,0,0,1-2.94-2.94V38.69a2.94,2.94,0,0,1,2.94-2.94H91.51m0-1.5H72.3a4.44,4.44,0,0,0-4.44,4.44V57.9a4.44,4.44,0,0,0,4.44,4.44H91.51A4.44,4.44,0,0,0,96,57.9V38.69a4.44,4.44,0,0,0-4.44-4.44Z"/><rect x="36.54" y="35" width="26.59" height="26.59" rx="3.69" style="fill:#fff"/><path d="M59.44,35.75a2.94,2.94,0,0,1,2.94,2.94V57.9a2.94,2.94,0,0,1-2.94,2.94H40.23a2.94,2.94,0,0,1-2.94-2.94V38.69a2.94,2.94,0,0,1,2.94-2.94H59.44m0-1.5H40.23a4.44,4.44,0,0,0-4.44,4.44V57.9a4.44,4.44,0,0,0,4.44,4.44H59.44a4.44,4.44,0,0,0,4.44-4.44V38.69a4.44,4.44,0,0,0-4.44-4.44Z"/><rect x="36.54" y="3.08" width="26.59" height="26.59" rx="3.69" style="fill:#fff"/><path d="M59.44,3.83a2.94,2.94,0,0,1,2.94,2.94V26a2.94,2.94,0,0,1-2.94,2.94H40.23A2.94,2.94,0,0,1,37.29,26V6.77a2.94,2.94,0,0,1,2.94-2.94H59.44m0-1.5H40.23a4.44,4.44,0,0,0-4.44,4.44V26a4.44,4.44,0,0,0,4.44,4.44H59.44A4.44,4.44,0,0,0,63.88,26V6.77a4.44,4.44,0,0,0-4.44-4.44Z"/><path d="M25,47.88a5.25,5.25,0,0,0-2.78-.4L19,47.53l-3.19.07a13.49,13.49,0,0,0-3.11.2.63.63,0,0,0,0,1.21,14,14,0,0,0,3.11.1l3.07,0L22,49a25.12,25.12,0,0,0,2.88-.09c.52-.08.52-.82.14-1Z"/><path d="M15.75,43.23a3.28,3.28,0,0,0-1,1l-.9,1.23c-.6.81-1.22,1.59-1.87,2.36a.84.84,0,0,0,.58,1.41c.31,0,.6.45.79.65.35.38.69.76,1,1.15.65.76,1.26,1.53,1.84,2.33a.83.83,0,0,0,1.1.29.82.82,0,0,0,.29-1.1q-1.1-1.51-2.31-2.94c-.76-.88-1.49-1.9-2.73-2L13.14,49c.7-.82,1.36-1.69,2-2.57a5.6,5.6,0,0,0,1.35-2.8.49.49,0,0,0-.72-.41Z"/><path d="M49.41,42.35a5.26,5.26,0,0,0-.4,2.78c0,1.06,0,2.13.06,3.19s0,2.13.07,3.19a13.45,13.45,0,0,0,.19,3.11.63.63,0,0,0,1.21,0,13.46,13.46,0,0,0,.1-3.11c0-1,0-2,0-3.07s0-2,0-3.06a27.72,27.72,0,0,0-.1-2.89c-.07-.52-.81-.51-1.05-.14Z"/><path d="M44.76,51.59a3.28,3.28,0,0,0,1,1l1.24.91c.8.59,1.59,1.21,2.35,1.86a.84.84,0,0,0,1.41-.58c0-.3.46-.6.66-.79.37-.35.76-.69,1.15-1,.75-.65,1.52-1.26,2.32-1.84A.83.83,0,0,0,55.2,50a.81.81,0,0,0-1.1-.28c-1,.72-2,1.49-2.94,2.3s-1.89,1.5-2,2.73l1.41-.58a30.79,30.79,0,0,0-2.57-2,5.53,5.53,0,0,0-2.79-1.35.48.48,0,0,0-.42.71Z"/><path d="M50.15,22.52a5.21,5.21,0,0,0,.4-2.77c0-1.07,0-2.13-.06-3.19s0-2.13-.07-3.19a13.42,13.42,0,0,0-.19-3.11.63.63,0,0,0-1.21,0,13.45,13.45,0,0,0-.1,3.11c0,1,0,2,0,3.06s0,2.05,0,3.07a27.81,27.81,0,0,0,.1,2.89c.07.52.81.51,1,.13Z"/><path d="M54.8,13.29a3.28,3.28,0,0,0-1-1l-1.24-.91c-.8-.6-1.59-1.22-2.35-1.86a.83.83,0,0,0-1.41.58c0,.3-.46.6-.66.79-.37.34-.76.69-1.15,1-.75.64-1.52,1.25-2.32,1.84a.82.82,0,0,0-.29,1.09.8.8,0,0,0,1.1.29c1-.73,2-1.49,2.94-2.31s1.89-1.49,2-2.72L49,10.67c.82.7,1.68,1.36,2.57,2A5.61,5.61,0,0,0,54.38,14a.48.48,0,0,0,.42-.71Z"/><path d="M75.76,48.66a5.22,5.22,0,0,0,2.77.4L81.72,49l3.19-.07a13.42,13.42,0,0,0,3.11-.2.63.63,0,0,0,0-1.21,13.45,13.45,0,0,0-3.11-.09l-3.06,0-3.07.05a25.37,25.37,0,0,0-2.89.09c-.51.08-.51.82-.13,1Z"/><path d="M85,53.31a3.36,3.36,0,0,0,1-1l.91-1.23c.6-.81,1.22-1.59,1.87-2.36a.84.84,0,0,0-.59-1.41c-.3,0-.6-.45-.78-.65-.35-.38-.69-.76-1-1.15-.64-.75-1.25-1.53-1.84-2.33a.8.8,0,0,0-1.38.81c.73,1,1.5,2,2.31,2.94s1.49,1.9,2.72,2l-.58-1.41c-.7.82-1.36,1.69-2,2.57a5.6,5.6,0,0,0-1.35,2.8.49.49,0,0,0,.72.41Z"/></svg>